%FSLAX45Y45*%
G04 Gerber Fmt 4.5, Leading zero omitted, Abs format (unit mm)*
G04 Created by KiCad (PCBNEW 5.1.9) date 2021-08-01 18:05:11*
%MOMM*%
%LPD*%
G01*
G04 APERTURE LIST*
%TA.AperFunction,Profile*%
%ADD10C,0.050000*%
%TD*%
%ADD11C,0.200000*%
%ADD12C,0.300000*%
G04 APERTURE END LIST*
D10*
X11653520Y-6831330D02*
X11653520Y-2082800D01*
X4681220Y-2082800D02*
X4681220Y-6831330D01*
X11653520Y-2082800D02*
X4681220Y-2082800D01*
X4681220Y-6831330D02*
X11653520Y-6831330D01*
D11*
X6918290Y-5155530D02*
X6993290Y-5230530D01*
X6993290Y-5155530D02*
X6918290Y-5230530D01*
X6918290Y-5409530D02*
X6993290Y-5484530D01*
X6993290Y-5409530D02*
X6918290Y-5484530D01*
X6918290Y-5663530D02*
X6993290Y-5738530D01*
X6993290Y-5663530D02*
X6918290Y-5738530D01*
X7193880Y-5155530D02*
X7268880Y-5230530D01*
X7268880Y-5155530D02*
X7193880Y-5230530D01*
X7193880Y-5409530D02*
X7268880Y-5484530D01*
X7268880Y-5409530D02*
X7193880Y-5484530D01*
X7193880Y-5663530D02*
X7268880Y-5738530D01*
X7268880Y-5663530D02*
X7193880Y-5738530D01*
X9686890Y-4905340D02*
X9761890Y-4980340D01*
X9761890Y-4905340D02*
X9686890Y-4980340D01*
X9686890Y-5159340D02*
X9761890Y-5234340D01*
X9761890Y-5159340D02*
X9686890Y-5234340D01*
X9686890Y-5413340D02*
X9761890Y-5488340D01*
X9761890Y-5413340D02*
X9686890Y-5488340D01*
X5539100Y-5547360D02*
G75*
G03*
X5539100Y-5547360I-40000J0D01*
G01*
X5674990Y-4042410D02*
G75*
G03*
X5674990Y-4042410I-40000J0D01*
G01*
X5793100Y-5547360D02*
G75*
G03*
X5793100Y-5547360I-40000J0D01*
G01*
X6047100Y-5547360D02*
G75*
G03*
X6047100Y-5547360I-40000J0D01*
G01*
X6048750Y-5209540D02*
G75*
G03*
X6048750Y-5209540I-40000J0D01*
G01*
X6266810Y-4476750D02*
G75*
G03*
X6266810Y-4476750I-40000J0D01*
G01*
X6436990Y-4042410D02*
G75*
G03*
X6436990Y-4042410I-40000J0D01*
G01*
X6548750Y-5209540D02*
G75*
G03*
X6548750Y-5209540I-40000J0D01*
G01*
X6755760Y-4042410D02*
G75*
G03*
X6755760Y-4042410I-40000J0D01*
G01*
X6763950Y-3542030D02*
G75*
G03*
X6763950Y-3542030I-40000J0D01*
G01*
X6769730Y-5214620D02*
G75*
G03*
X6769730Y-5214620I-40000J0D01*
G01*
X6769730Y-5976620D02*
G75*
G03*
X6769730Y-5976620I-40000J0D01*
G01*
X7009760Y-4042410D02*
G75*
G03*
X7009760Y-4042410I-40000J0D01*
G01*
X7028810Y-4476750D02*
G75*
G03*
X7028810Y-4476750I-40000J0D01*
G01*
X7060940Y-4989830D02*
G75*
G03*
X7060940Y-4989830I-40000J0D01*
G01*
X7263760Y-4042410D02*
G75*
G03*
X7263760Y-4042410I-40000J0D01*
G01*
X7513950Y-3542030D02*
G75*
G03*
X7513950Y-3542030I-40000J0D01*
G01*
X7554590Y-5438140D02*
G75*
G03*
X7554590Y-5438140I-40000J0D01*
G01*
X7554590Y-6188140D02*
G75*
G03*
X7554590Y-6188140I-40000J0D01*
G01*
X7560940Y-4989830D02*
G75*
G03*
X7560940Y-4989830I-40000J0D01*
G01*
X7788270Y-4991100D02*
G75*
G03*
X7788270Y-4991100I-40000J0D01*
G01*
X7840910Y-4692650D02*
G75*
G03*
X7840910Y-4692650I-40000J0D01*
G01*
X7846690Y-4428490D02*
G75*
G03*
X7846690Y-4428490I-40000J0D01*
G01*
X8288270Y-4991100D02*
G75*
G03*
X8288270Y-4991100I-40000J0D01*
G01*
X8293730Y-3539490D02*
G75*
G03*
X8293730Y-3539490I-40000J0D01*
G01*
X8528680Y-5452110D02*
G75*
G03*
X8528680Y-5452110I-40000J0D01*
G01*
X8528680Y-6214110D02*
G75*
G03*
X8528680Y-6214110I-40000J0D01*
G01*
X8590910Y-4692650D02*
G75*
G03*
X8590910Y-4692650I-40000J0D01*
G01*
X8608690Y-3810000D02*
G75*
G03*
X8608690Y-3810000I-40000J0D01*
G01*
X8608690Y-4072890D02*
G75*
G03*
X8608690Y-4072890I-40000J0D01*
G01*
X8608690Y-4428490D02*
G75*
G03*
X8608690Y-4428490I-40000J0D01*
G01*
X8750930Y-5452110D02*
G75*
G03*
X8750930Y-5452110I-40000J0D01*
G01*
X8983340Y-4438650D02*
G75*
G03*
X8983340Y-4438650I-40000J0D01*
G01*
X8983340Y-4692650D02*
G75*
G03*
X8983340Y-4692650I-40000J0D01*
G01*
X8983340Y-4946650D02*
G75*
G03*
X8983340Y-4946650I-40000J0D01*
G01*
X9055730Y-3539490D02*
G75*
G03*
X9055730Y-3539490I-40000J0D01*
G01*
X9358690Y-4072890D02*
G75*
G03*
X9358690Y-4072890I-40000J0D01*
G01*
X9360530Y-3539490D02*
G75*
G03*
X9360530Y-3539490I-40000J0D01*
G01*
X9368150Y-4437380D02*
G75*
G03*
X9368150Y-4437380I-40000J0D01*
G01*
X9368150Y-5187380D02*
G75*
G03*
X9368150Y-5187380I-40000J0D01*
G01*
X9370690Y-3810000D02*
G75*
G03*
X9370690Y-3810000I-40000J0D01*
G01*
X9512930Y-5452110D02*
G75*
G03*
X9512930Y-5452110I-40000J0D01*
G01*
X9620880Y-3967480D02*
G75*
G03*
X9620880Y-3967480I-40000J0D01*
G01*
X9620880Y-4467480D02*
G75*
G03*
X9620880Y-4467480I-40000J0D01*
G01*
X9841860Y-3933190D02*
G75*
G03*
X9841860Y-3933190I-40000J0D01*
G01*
X9841860Y-4695190D02*
G75*
G03*
X9841860Y-4695190I-40000J0D01*
G01*
X10024740Y-5198110D02*
G75*
G03*
X10024740Y-5198110I-40000J0D01*
G01*
X10033630Y-4942840D02*
G75*
G03*
X10033630Y-4942840I-40000J0D01*
G01*
X10033630Y-5452110D02*
G75*
G03*
X10033630Y-5452110I-40000J0D01*
G01*
X10070460Y-4127500D02*
G75*
G03*
X10070460Y-4127500I-40000J0D01*
G01*
X10071730Y-4403090D02*
G75*
G03*
X10071730Y-4403090I-40000J0D01*
G01*
X10078650Y-4695190D02*
G75*
G03*
X10078650Y-4695190I-40000J0D01*
G01*
X10122530Y-3539490D02*
G75*
G03*
X10122530Y-3539490I-40000J0D01*
G01*
X10783630Y-4942840D02*
G75*
G03*
X10783630Y-4942840I-40000J0D01*
G01*
X10786740Y-5198110D02*
G75*
G03*
X10786740Y-5198110I-40000J0D01*
G01*
X10795630Y-5452110D02*
G75*
G03*
X10795630Y-5452110I-40000J0D01*
G01*
X10820460Y-4127500D02*
G75*
G03*
X10820460Y-4127500I-40000J0D01*
G01*
X10828650Y-4695190D02*
G75*
G03*
X10828650Y-4695190I-40000J0D01*
G01*
X10833730Y-4403090D02*
G75*
G03*
X10833730Y-4403090I-40000J0D01*
G01*
X5967730Y-4713690D02*
X5967730Y-4803690D01*
X5922730Y-4758690D02*
X6012730Y-4758690D01*
X6983730Y-4713690D02*
X6983730Y-4803690D01*
X6938730Y-4758690D02*
X7028730Y-4758690D01*
X5660186Y-4891836D02*
X5660186Y-4821124D01*
X5589474Y-4821124D01*
X5589474Y-4891836D01*
X5660186Y-4891836D01*
X5660186Y-5145836D02*
X5660186Y-5075124D01*
X5589474Y-5075124D01*
X5589474Y-5145836D01*
X5660186Y-5145836D01*
X9089186Y-3031286D02*
X9089186Y-2960574D01*
X9018474Y-2960574D01*
X9018474Y-3031286D01*
X9089186Y-3031286D01*
X9089186Y-3285286D02*
X9089186Y-3214574D01*
X9018474Y-3214574D01*
X9018474Y-3285286D01*
X9089186Y-3285286D01*
X9454946Y-3247186D02*
X9454946Y-3176474D01*
X9384234Y-3176474D01*
X9384234Y-3247186D01*
X9454946Y-3247186D01*
X10288066Y-3880916D02*
X10288066Y-3810204D01*
X10217354Y-3810204D01*
X10217354Y-3880916D01*
X10288066Y-3880916D01*
X10542066Y-3880916D02*
X10542066Y-3810204D01*
X10471354Y-3810204D01*
X10471354Y-3880916D01*
X10542066Y-3880916D01*
X10954946Y-3247186D02*
X10954946Y-3176474D01*
X10884234Y-3176474D01*
X10884234Y-3247186D01*
X10954946Y-3247186D01*
X7967980Y-3449710D02*
X8022980Y-3394710D01*
X7967980Y-3339710D01*
X7912980Y-3394710D01*
X7967980Y-3449710D01*
X7967980Y-5481710D02*
X8022980Y-5426710D01*
X7967980Y-5371710D01*
X7912980Y-5426710D01*
X7967980Y-5481710D01*
D12*
X4965148Y-7299544D02*
X4965148Y-6999544D01*
X5036577Y-6999544D01*
X5079434Y-7013830D01*
X5108006Y-7042401D01*
X5122291Y-7070973D01*
X5136577Y-7128116D01*
X5136577Y-7170973D01*
X5122291Y-7228116D01*
X5108006Y-7256687D01*
X5079434Y-7285259D01*
X5036577Y-7299544D01*
X4965148Y-7299544D01*
X5265148Y-7299544D02*
X5265148Y-7099544D01*
X5265148Y-7156687D02*
X5279434Y-7128116D01*
X5293720Y-7113830D01*
X5322291Y-7099544D01*
X5350863Y-7099544D01*
X5450863Y-7299544D02*
X5450863Y-7099544D01*
X5450863Y-6999544D02*
X5436577Y-7013830D01*
X5450863Y-7028116D01*
X5465148Y-7013830D01*
X5450863Y-6999544D01*
X5450863Y-7028116D01*
X5636577Y-7299544D02*
X5608006Y-7285259D01*
X5593720Y-7256687D01*
X5593720Y-6999544D01*
X5793720Y-7299544D02*
X5765148Y-7285259D01*
X5750863Y-7256687D01*
X5750863Y-6999544D01*
X6136577Y-7299544D02*
X6136577Y-6999544D01*
X6236577Y-7213830D01*
X6336577Y-6999544D01*
X6336577Y-7299544D01*
X6608006Y-7299544D02*
X6608006Y-7142401D01*
X6593720Y-7113830D01*
X6565148Y-7099544D01*
X6508006Y-7099544D01*
X6479434Y-7113830D01*
X6608006Y-7285259D02*
X6579434Y-7299544D01*
X6508006Y-7299544D01*
X6479434Y-7285259D01*
X6465148Y-7256687D01*
X6465148Y-7228116D01*
X6479434Y-7199544D01*
X6508006Y-7185259D01*
X6579434Y-7185259D01*
X6608006Y-7170973D01*
X6750863Y-7099544D02*
X6750863Y-7399544D01*
X6750863Y-7113830D02*
X6779434Y-7099544D01*
X6836577Y-7099544D01*
X6865148Y-7113830D01*
X6879434Y-7128116D01*
X6893720Y-7156687D01*
X6893720Y-7242401D01*
X6879434Y-7270973D01*
X6865148Y-7285259D01*
X6836577Y-7299544D01*
X6779434Y-7299544D01*
X6750863Y-7285259D01*
X7022291Y-7270973D02*
X7036577Y-7285259D01*
X7022291Y-7299544D01*
X7008006Y-7285259D01*
X7022291Y-7270973D01*
X7022291Y-7299544D01*
X7022291Y-7113830D02*
X7036577Y-7128116D01*
X7022291Y-7142401D01*
X7008006Y-7128116D01*
X7022291Y-7113830D01*
X7022291Y-7142401D01*
X4603720Y-7756330D02*
X4678720Y-7831330D01*
X4678720Y-7756330D02*
X4603720Y-7831330D01*
X5022291Y-7629544D02*
X5050863Y-7629544D01*
X5079434Y-7643830D01*
X5093720Y-7658116D01*
X5108006Y-7686687D01*
X5122291Y-7743830D01*
X5122291Y-7815259D01*
X5108006Y-7872401D01*
X5093720Y-7900973D01*
X5079434Y-7915259D01*
X5050863Y-7929544D01*
X5022291Y-7929544D01*
X4993720Y-7915259D01*
X4979434Y-7900973D01*
X4965148Y-7872401D01*
X4950863Y-7815259D01*
X4950863Y-7743830D01*
X4965148Y-7686687D01*
X4979434Y-7658116D01*
X4993720Y-7643830D01*
X5022291Y-7629544D01*
X5250863Y-7900973D02*
X5265148Y-7915259D01*
X5250863Y-7929544D01*
X5236577Y-7915259D01*
X5250863Y-7900973D01*
X5250863Y-7929544D01*
X5365148Y-7629544D02*
X5565148Y-7629544D01*
X5436577Y-7929544D01*
X5822291Y-7629544D02*
X5679434Y-7629544D01*
X5665148Y-7772401D01*
X5679434Y-7758116D01*
X5708006Y-7743830D01*
X5779434Y-7743830D01*
X5808006Y-7758116D01*
X5822291Y-7772401D01*
X5836577Y-7800973D01*
X5836577Y-7872401D01*
X5822291Y-7900973D01*
X5808006Y-7915259D01*
X5779434Y-7929544D01*
X5708006Y-7929544D01*
X5679434Y-7915259D01*
X5665148Y-7900973D01*
X5965148Y-7929544D02*
X5965148Y-7729544D01*
X5965148Y-7758116D02*
X5979434Y-7743830D01*
X6008006Y-7729544D01*
X6050863Y-7729544D01*
X6079434Y-7743830D01*
X6093720Y-7772401D01*
X6093720Y-7929544D01*
X6093720Y-7772401D02*
X6108006Y-7743830D01*
X6136577Y-7729544D01*
X6179434Y-7729544D01*
X6208006Y-7743830D01*
X6222291Y-7772401D01*
X6222291Y-7929544D01*
X6365148Y-7929544D02*
X6365148Y-7729544D01*
X6365148Y-7758116D02*
X6379434Y-7743830D01*
X6408006Y-7729544D01*
X6450863Y-7729544D01*
X6479434Y-7743830D01*
X6493720Y-7772401D01*
X6493720Y-7929544D01*
X6493720Y-7772401D02*
X6508006Y-7743830D01*
X6536577Y-7729544D01*
X6579434Y-7729544D01*
X6608006Y-7743830D01*
X6622291Y-7772401D01*
X6622291Y-7929544D01*
X7208006Y-7615259D02*
X6950863Y-8000973D01*
X7593720Y-7629544D02*
X7622291Y-7629544D01*
X7650863Y-7643830D01*
X7665148Y-7658116D01*
X7679434Y-7686687D01*
X7693720Y-7743830D01*
X7693720Y-7815259D01*
X7679434Y-7872401D01*
X7665148Y-7900973D01*
X7650863Y-7915259D01*
X7622291Y-7929544D01*
X7593720Y-7929544D01*
X7565148Y-7915259D01*
X7550863Y-7900973D01*
X7536577Y-7872401D01*
X7522291Y-7815259D01*
X7522291Y-7743830D01*
X7536577Y-7686687D01*
X7550863Y-7658116D01*
X7565148Y-7643830D01*
X7593720Y-7629544D01*
X7822291Y-7900973D02*
X7836577Y-7915259D01*
X7822291Y-7929544D01*
X7808006Y-7915259D01*
X7822291Y-7900973D01*
X7822291Y-7929544D01*
X8022291Y-7629544D02*
X8050863Y-7629544D01*
X8079434Y-7643830D01*
X8093720Y-7658116D01*
X8108006Y-7686687D01*
X8122291Y-7743830D01*
X8122291Y-7815259D01*
X8108006Y-7872401D01*
X8093720Y-7900973D01*
X8079434Y-7915259D01*
X8050863Y-7929544D01*
X8022291Y-7929544D01*
X7993720Y-7915259D01*
X7979434Y-7900973D01*
X7965148Y-7872401D01*
X7950863Y-7815259D01*
X7950863Y-7743830D01*
X7965148Y-7686687D01*
X7979434Y-7658116D01*
X7993720Y-7643830D01*
X8022291Y-7629544D01*
X8222291Y-7629544D02*
X8408006Y-7629544D01*
X8308006Y-7743830D01*
X8350863Y-7743830D01*
X8379434Y-7758116D01*
X8393720Y-7772401D01*
X8408006Y-7800973D01*
X8408006Y-7872401D01*
X8393720Y-7900973D01*
X8379434Y-7915259D01*
X8350863Y-7929544D01*
X8265148Y-7929544D01*
X8236577Y-7915259D01*
X8222291Y-7900973D01*
X8593720Y-7629544D02*
X8622291Y-7629544D01*
X8650863Y-7643830D01*
X8665148Y-7658116D01*
X8679434Y-7686687D01*
X8693720Y-7743830D01*
X8693720Y-7815259D01*
X8679434Y-7872401D01*
X8665148Y-7900973D01*
X8650863Y-7915259D01*
X8622291Y-7929544D01*
X8593720Y-7929544D01*
X8565148Y-7915259D01*
X8550863Y-7900973D01*
X8536577Y-7872401D01*
X8522291Y-7815259D01*
X8522291Y-7743830D01*
X8536577Y-7686687D01*
X8550863Y-7658116D01*
X8565148Y-7643830D01*
X8593720Y-7629544D01*
X8808006Y-7629544D02*
X8808006Y-7686687D01*
X8922291Y-7629544D02*
X8922291Y-7686687D01*
X9365148Y-8043830D02*
X9350863Y-8029544D01*
X9322291Y-7986687D01*
X9308006Y-7958116D01*
X9293720Y-7915259D01*
X9279434Y-7843830D01*
X9279434Y-7786687D01*
X9293720Y-7715259D01*
X9308006Y-7672401D01*
X9322291Y-7643830D01*
X9350863Y-7600973D01*
X9365148Y-7586687D01*
X9493720Y-7929544D02*
X9550863Y-7929544D01*
X9579434Y-7915259D01*
X9593720Y-7900973D01*
X9622291Y-7858116D01*
X9636577Y-7800973D01*
X9636577Y-7686687D01*
X9622291Y-7658116D01*
X9608006Y-7643830D01*
X9579434Y-7629544D01*
X9522291Y-7629544D01*
X9493720Y-7643830D01*
X9479434Y-7658116D01*
X9465148Y-7686687D01*
X9465148Y-7758116D01*
X9479434Y-7786687D01*
X9493720Y-7800973D01*
X9522291Y-7815259D01*
X9579434Y-7815259D01*
X9608006Y-7800973D01*
X9622291Y-7786687D01*
X9636577Y-7758116D01*
X9993720Y-7929544D02*
X9993720Y-7629544D01*
X10122291Y-7929544D02*
X10122291Y-7772401D01*
X10108006Y-7743830D01*
X10079434Y-7729544D01*
X10036577Y-7729544D01*
X10008006Y-7743830D01*
X9993720Y-7758116D01*
X10308006Y-7929544D02*
X10279434Y-7915259D01*
X10265148Y-7900973D01*
X10250863Y-7872401D01*
X10250863Y-7786687D01*
X10265148Y-7758116D01*
X10279434Y-7743830D01*
X10308006Y-7729544D01*
X10350863Y-7729544D01*
X10379434Y-7743830D01*
X10393720Y-7758116D01*
X10408006Y-7786687D01*
X10408006Y-7872401D01*
X10393720Y-7900973D01*
X10379434Y-7915259D01*
X10350863Y-7929544D01*
X10308006Y-7929544D01*
X10579434Y-7929544D02*
X10550863Y-7915259D01*
X10536577Y-7886687D01*
X10536577Y-7629544D01*
X10808006Y-7915259D02*
X10779434Y-7929544D01*
X10722291Y-7929544D01*
X10693720Y-7915259D01*
X10679434Y-7886687D01*
X10679434Y-7772401D01*
X10693720Y-7743830D01*
X10722291Y-7729544D01*
X10779434Y-7729544D01*
X10808006Y-7743830D01*
X10822291Y-7772401D01*
X10822291Y-7800973D01*
X10679434Y-7829544D01*
X10936577Y-7915259D02*
X10965148Y-7929544D01*
X11022291Y-7929544D01*
X11050863Y-7915259D01*
X11065148Y-7886687D01*
X11065148Y-7872401D01*
X11050863Y-7843830D01*
X11022291Y-7829544D01*
X10979434Y-7829544D01*
X10950863Y-7815259D01*
X10936577Y-7786687D01*
X10936577Y-7772401D01*
X10950863Y-7743830D01*
X10979434Y-7729544D01*
X11022291Y-7729544D01*
X11050863Y-7743830D01*
X11165148Y-8043830D02*
X11179434Y-8029544D01*
X11208006Y-7986687D01*
X11222291Y-7958116D01*
X11236577Y-7915259D01*
X11250863Y-7843830D01*
X11250863Y-7786687D01*
X11236577Y-7715259D01*
X11222291Y-7672401D01*
X11208006Y-7643830D01*
X11179434Y-7600973D01*
X11165148Y-7586687D01*
X4678720Y-8189830D02*
G75*
G03*
X4678720Y-8189830I-40000J0D01*
G01*
X5022291Y-8025544D02*
X5050863Y-8025544D01*
X5079434Y-8039830D01*
X5093720Y-8054116D01*
X5108006Y-8082687D01*
X5122291Y-8139830D01*
X5122291Y-8211259D01*
X5108006Y-8268401D01*
X5093720Y-8296973D01*
X5079434Y-8311259D01*
X5050863Y-8325544D01*
X5022291Y-8325544D01*
X4993720Y-8311259D01*
X4979434Y-8296973D01*
X4965148Y-8268401D01*
X4950863Y-8211259D01*
X4950863Y-8139830D01*
X4965148Y-8082687D01*
X4979434Y-8054116D01*
X4993720Y-8039830D01*
X5022291Y-8025544D01*
X5250863Y-8296973D02*
X5265148Y-8311259D01*
X5250863Y-8325544D01*
X5236577Y-8311259D01*
X5250863Y-8296973D01*
X5250863Y-8325544D01*
X5436577Y-8154116D02*
X5408006Y-8139830D01*
X5393720Y-8125544D01*
X5379434Y-8096973D01*
X5379434Y-8082687D01*
X5393720Y-8054116D01*
X5408006Y-8039830D01*
X5436577Y-8025544D01*
X5493720Y-8025544D01*
X5522291Y-8039830D01*
X5536577Y-8054116D01*
X5550863Y-8082687D01*
X5550863Y-8096973D01*
X5536577Y-8125544D01*
X5522291Y-8139830D01*
X5493720Y-8154116D01*
X5436577Y-8154116D01*
X5408006Y-8168401D01*
X5393720Y-8182687D01*
X5379434Y-8211259D01*
X5379434Y-8268401D01*
X5393720Y-8296973D01*
X5408006Y-8311259D01*
X5436577Y-8325544D01*
X5493720Y-8325544D01*
X5522291Y-8311259D01*
X5536577Y-8296973D01*
X5550863Y-8268401D01*
X5550863Y-8211259D01*
X5536577Y-8182687D01*
X5522291Y-8168401D01*
X5493720Y-8154116D01*
X5736577Y-8025544D02*
X5765148Y-8025544D01*
X5793720Y-8039830D01*
X5808006Y-8054116D01*
X5822291Y-8082687D01*
X5836577Y-8139830D01*
X5836577Y-8211259D01*
X5822291Y-8268401D01*
X5808006Y-8296973D01*
X5793720Y-8311259D01*
X5765148Y-8325544D01*
X5736577Y-8325544D01*
X5708006Y-8311259D01*
X5693720Y-8296973D01*
X5679434Y-8268401D01*
X5665148Y-8211259D01*
X5665148Y-8139830D01*
X5679434Y-8082687D01*
X5693720Y-8054116D01*
X5708006Y-8039830D01*
X5736577Y-8025544D01*
X5965148Y-8325544D02*
X5965148Y-8125544D01*
X5965148Y-8154116D02*
X5979434Y-8139830D01*
X6008006Y-8125544D01*
X6050863Y-8125544D01*
X6079434Y-8139830D01*
X6093720Y-8168401D01*
X6093720Y-8325544D01*
X6093720Y-8168401D02*
X6108006Y-8139830D01*
X6136577Y-8125544D01*
X6179434Y-8125544D01*
X6208006Y-8139830D01*
X6222291Y-8168401D01*
X6222291Y-8325544D01*
X6365148Y-8325544D02*
X6365148Y-8125544D01*
X6365148Y-8154116D02*
X6379434Y-8139830D01*
X6408006Y-8125544D01*
X6450863Y-8125544D01*
X6479434Y-8139830D01*
X6493720Y-8168401D01*
X6493720Y-8325544D01*
X6493720Y-8168401D02*
X6508006Y-8139830D01*
X6536577Y-8125544D01*
X6579434Y-8125544D01*
X6608006Y-8139830D01*
X6622291Y-8168401D01*
X6622291Y-8325544D01*
X7208006Y-8011259D02*
X6950863Y-8396973D01*
X7593720Y-8025544D02*
X7622291Y-8025544D01*
X7650863Y-8039830D01*
X7665148Y-8054116D01*
X7679434Y-8082687D01*
X7693720Y-8139830D01*
X7693720Y-8211259D01*
X7679434Y-8268401D01*
X7665148Y-8296973D01*
X7650863Y-8311259D01*
X7622291Y-8325544D01*
X7593720Y-8325544D01*
X7565148Y-8311259D01*
X7550863Y-8296973D01*
X7536577Y-8268401D01*
X7522291Y-8211259D01*
X7522291Y-8139830D01*
X7536577Y-8082687D01*
X7550863Y-8054116D01*
X7565148Y-8039830D01*
X7593720Y-8025544D01*
X7822291Y-8296973D02*
X7836577Y-8311259D01*
X7822291Y-8325544D01*
X7808006Y-8311259D01*
X7822291Y-8296973D01*
X7822291Y-8325544D01*
X8022291Y-8025544D02*
X8050863Y-8025544D01*
X8079434Y-8039830D01*
X8093720Y-8054116D01*
X8108006Y-8082687D01*
X8122291Y-8139830D01*
X8122291Y-8211259D01*
X8108006Y-8268401D01*
X8093720Y-8296973D01*
X8079434Y-8311259D01*
X8050863Y-8325544D01*
X8022291Y-8325544D01*
X7993720Y-8311259D01*
X7979434Y-8296973D01*
X7965148Y-8268401D01*
X7950863Y-8211259D01*
X7950863Y-8139830D01*
X7965148Y-8082687D01*
X7979434Y-8054116D01*
X7993720Y-8039830D01*
X8022291Y-8025544D01*
X8222291Y-8025544D02*
X8408006Y-8025544D01*
X8308006Y-8139830D01*
X8350863Y-8139830D01*
X8379434Y-8154116D01*
X8393720Y-8168401D01*
X8408006Y-8196973D01*
X8408006Y-8268401D01*
X8393720Y-8296973D01*
X8379434Y-8311259D01*
X8350863Y-8325544D01*
X8265148Y-8325544D01*
X8236577Y-8311259D01*
X8222291Y-8296973D01*
X8693720Y-8325544D02*
X8522291Y-8325544D01*
X8608006Y-8325544D02*
X8608006Y-8025544D01*
X8579434Y-8068401D01*
X8550863Y-8096973D01*
X8522291Y-8111259D01*
X8808006Y-8025544D02*
X8808006Y-8082687D01*
X8922291Y-8025544D02*
X8922291Y-8082687D01*
X9365148Y-8439830D02*
X9350863Y-8425544D01*
X9322291Y-8382687D01*
X9308006Y-8354116D01*
X9293720Y-8311259D01*
X9279434Y-8239830D01*
X9279434Y-8182687D01*
X9293720Y-8111259D01*
X9308006Y-8068401D01*
X9322291Y-8039830D01*
X9350863Y-7996973D01*
X9365148Y-7982687D01*
X9622291Y-8025544D02*
X9479434Y-8025544D01*
X9465148Y-8168401D01*
X9479434Y-8154116D01*
X9508006Y-8139830D01*
X9579434Y-8139830D01*
X9608006Y-8154116D01*
X9622291Y-8168401D01*
X9636577Y-8196973D01*
X9636577Y-8268401D01*
X9622291Y-8296973D01*
X9608006Y-8311259D01*
X9579434Y-8325544D01*
X9508006Y-8325544D01*
X9479434Y-8311259D01*
X9465148Y-8296973D01*
X9779434Y-8325544D02*
X9836577Y-8325544D01*
X9865148Y-8311259D01*
X9879434Y-8296973D01*
X9908006Y-8254116D01*
X9922291Y-8196973D01*
X9922291Y-8082687D01*
X9908006Y-8054116D01*
X9893720Y-8039830D01*
X9865148Y-8025544D01*
X9808006Y-8025544D01*
X9779434Y-8039830D01*
X9765148Y-8054116D01*
X9750863Y-8082687D01*
X9750863Y-8154116D01*
X9765148Y-8182687D01*
X9779434Y-8196973D01*
X9808006Y-8211259D01*
X9865148Y-8211259D01*
X9893720Y-8196973D01*
X9908006Y-8182687D01*
X9922291Y-8154116D01*
X10279434Y-8325544D02*
X10279434Y-8025544D01*
X10408006Y-8325544D02*
X10408006Y-8168401D01*
X10393720Y-8139830D01*
X10365148Y-8125544D01*
X10322291Y-8125544D01*
X10293720Y-8139830D01*
X10279434Y-8154116D01*
X10593720Y-8325544D02*
X10565148Y-8311259D01*
X10550863Y-8296973D01*
X10536577Y-8268401D01*
X10536577Y-8182687D01*
X10550863Y-8154116D01*
X10565148Y-8139830D01*
X10593720Y-8125544D01*
X10636577Y-8125544D01*
X10665148Y-8139830D01*
X10679434Y-8154116D01*
X10693720Y-8182687D01*
X10693720Y-8268401D01*
X10679434Y-8296973D01*
X10665148Y-8311259D01*
X10636577Y-8325544D01*
X10593720Y-8325544D01*
X10865148Y-8325544D02*
X10836577Y-8311259D01*
X10822291Y-8282687D01*
X10822291Y-8025544D01*
X11093720Y-8311259D02*
X11065148Y-8325544D01*
X11008006Y-8325544D01*
X10979434Y-8311259D01*
X10965148Y-8282687D01*
X10965148Y-8168401D01*
X10979434Y-8139830D01*
X11008006Y-8125544D01*
X11065148Y-8125544D01*
X11093720Y-8139830D01*
X11108006Y-8168401D01*
X11108006Y-8196973D01*
X10965148Y-8225544D01*
X11222291Y-8311259D02*
X11250863Y-8325544D01*
X11308006Y-8325544D01*
X11336577Y-8311259D01*
X11350863Y-8282687D01*
X11350863Y-8268401D01*
X11336577Y-8239830D01*
X11308006Y-8225544D01*
X11265148Y-8225544D01*
X11236577Y-8211259D01*
X11222291Y-8182687D01*
X11222291Y-8168401D01*
X11236577Y-8139830D01*
X11265148Y-8125544D01*
X11308006Y-8125544D01*
X11336577Y-8139830D01*
X11450863Y-8439830D02*
X11465148Y-8425544D01*
X11493720Y-8382687D01*
X11508006Y-8354116D01*
X11522291Y-8311259D01*
X11536577Y-8239830D01*
X11536577Y-8182687D01*
X11522291Y-8111259D01*
X11508006Y-8068401D01*
X11493720Y-8039830D01*
X11465148Y-7996973D01*
X11450863Y-7982687D01*
X4633720Y-8540830D02*
X4633720Y-8630830D01*
X4588720Y-8585830D02*
X4678720Y-8585830D01*
X5022291Y-8421544D02*
X5050863Y-8421544D01*
X5079434Y-8435830D01*
X5093720Y-8450116D01*
X5108006Y-8478687D01*
X5122291Y-8535830D01*
X5122291Y-8607259D01*
X5108006Y-8664402D01*
X5093720Y-8692973D01*
X5079434Y-8707259D01*
X5050863Y-8721544D01*
X5022291Y-8721544D01*
X4993720Y-8707259D01*
X4979434Y-8692973D01*
X4965148Y-8664402D01*
X4950863Y-8607259D01*
X4950863Y-8535830D01*
X4965148Y-8478687D01*
X4979434Y-8450116D01*
X4993720Y-8435830D01*
X5022291Y-8421544D01*
X5250863Y-8692973D02*
X5265148Y-8707259D01*
X5250863Y-8721544D01*
X5236577Y-8707259D01*
X5250863Y-8692973D01*
X5250863Y-8721544D01*
X5408006Y-8721544D02*
X5465148Y-8721544D01*
X5493720Y-8707259D01*
X5508006Y-8692973D01*
X5536577Y-8650116D01*
X5550863Y-8592973D01*
X5550863Y-8478687D01*
X5536577Y-8450116D01*
X5522291Y-8435830D01*
X5493720Y-8421544D01*
X5436577Y-8421544D01*
X5408006Y-8435830D01*
X5393720Y-8450116D01*
X5379434Y-8478687D01*
X5379434Y-8550116D01*
X5393720Y-8578687D01*
X5408006Y-8592973D01*
X5436577Y-8607259D01*
X5493720Y-8607259D01*
X5522291Y-8592973D01*
X5536577Y-8578687D01*
X5550863Y-8550116D01*
X5736577Y-8421544D02*
X5765148Y-8421544D01*
X5793720Y-8435830D01*
X5808006Y-8450116D01*
X5822291Y-8478687D01*
X5836577Y-8535830D01*
X5836577Y-8607259D01*
X5822291Y-8664402D01*
X5808006Y-8692973D01*
X5793720Y-8707259D01*
X5765148Y-8721544D01*
X5736577Y-8721544D01*
X5708006Y-8707259D01*
X5693720Y-8692973D01*
X5679434Y-8664402D01*
X5665148Y-8607259D01*
X5665148Y-8535830D01*
X5679434Y-8478687D01*
X5693720Y-8450116D01*
X5708006Y-8435830D01*
X5736577Y-8421544D01*
X5965148Y-8721544D02*
X5965148Y-8521544D01*
X5965148Y-8550116D02*
X5979434Y-8535830D01*
X6008006Y-8521544D01*
X6050863Y-8521544D01*
X6079434Y-8535830D01*
X6093720Y-8564402D01*
X6093720Y-8721544D01*
X6093720Y-8564402D02*
X6108006Y-8535830D01*
X6136577Y-8521544D01*
X6179434Y-8521544D01*
X6208006Y-8535830D01*
X6222291Y-8564402D01*
X6222291Y-8721544D01*
X6365148Y-8721544D02*
X6365148Y-8521544D01*
X6365148Y-8550116D02*
X6379434Y-8535830D01*
X6408006Y-8521544D01*
X6450863Y-8521544D01*
X6479434Y-8535830D01*
X6493720Y-8564402D01*
X6493720Y-8721544D01*
X6493720Y-8564402D02*
X6508006Y-8535830D01*
X6536577Y-8521544D01*
X6579434Y-8521544D01*
X6608006Y-8535830D01*
X6622291Y-8564402D01*
X6622291Y-8721544D01*
X7208006Y-8407259D02*
X6950863Y-8792973D01*
X7593720Y-8421544D02*
X7622291Y-8421544D01*
X7650863Y-8435830D01*
X7665148Y-8450116D01*
X7679434Y-8478687D01*
X7693720Y-8535830D01*
X7693720Y-8607259D01*
X7679434Y-8664402D01*
X7665148Y-8692973D01*
X7650863Y-8707259D01*
X7622291Y-8721544D01*
X7593720Y-8721544D01*
X7565148Y-8707259D01*
X7550863Y-8692973D01*
X7536577Y-8664402D01*
X7522291Y-8607259D01*
X7522291Y-8535830D01*
X7536577Y-8478687D01*
X7550863Y-8450116D01*
X7565148Y-8435830D01*
X7593720Y-8421544D01*
X7822291Y-8692973D02*
X7836577Y-8707259D01*
X7822291Y-8721544D01*
X7808006Y-8707259D01*
X7822291Y-8692973D01*
X7822291Y-8721544D01*
X8022291Y-8421544D02*
X8050863Y-8421544D01*
X8079434Y-8435830D01*
X8093720Y-8450116D01*
X8108006Y-8478687D01*
X8122291Y-8535830D01*
X8122291Y-8607259D01*
X8108006Y-8664402D01*
X8093720Y-8692973D01*
X8079434Y-8707259D01*
X8050863Y-8721544D01*
X8022291Y-8721544D01*
X7993720Y-8707259D01*
X7979434Y-8692973D01*
X7965148Y-8664402D01*
X7950863Y-8607259D01*
X7950863Y-8535830D01*
X7965148Y-8478687D01*
X7979434Y-8450116D01*
X7993720Y-8435830D01*
X8022291Y-8421544D01*
X8222291Y-8421544D02*
X8408006Y-8421544D01*
X8308006Y-8535830D01*
X8350863Y-8535830D01*
X8379434Y-8550116D01*
X8393720Y-8564402D01*
X8408006Y-8592973D01*
X8408006Y-8664402D01*
X8393720Y-8692973D01*
X8379434Y-8707259D01*
X8350863Y-8721544D01*
X8265148Y-8721544D01*
X8236577Y-8707259D01*
X8222291Y-8692973D01*
X8679434Y-8421544D02*
X8536577Y-8421544D01*
X8522291Y-8564402D01*
X8536577Y-8550116D01*
X8565148Y-8535830D01*
X8636577Y-8535830D01*
X8665148Y-8550116D01*
X8679434Y-8564402D01*
X8693720Y-8592973D01*
X8693720Y-8664402D01*
X8679434Y-8692973D01*
X8665148Y-8707259D01*
X8636577Y-8721544D01*
X8565148Y-8721544D01*
X8536577Y-8707259D01*
X8522291Y-8692973D01*
X8808006Y-8421544D02*
X8808006Y-8478687D01*
X8922291Y-8421544D02*
X8922291Y-8478687D01*
X9365148Y-8835830D02*
X9350863Y-8821544D01*
X9322291Y-8778687D01*
X9308006Y-8750116D01*
X9293720Y-8707259D01*
X9279434Y-8635830D01*
X9279434Y-8578687D01*
X9293720Y-8507259D01*
X9308006Y-8464402D01*
X9322291Y-8435830D01*
X9350863Y-8392973D01*
X9365148Y-8378687D01*
X9465148Y-8450116D02*
X9479434Y-8435830D01*
X9508006Y-8421544D01*
X9579434Y-8421544D01*
X9608006Y-8435830D01*
X9622291Y-8450116D01*
X9636577Y-8478687D01*
X9636577Y-8507259D01*
X9622291Y-8550116D01*
X9450863Y-8721544D01*
X9636577Y-8721544D01*
X9993720Y-8721544D02*
X9993720Y-8421544D01*
X10122291Y-8721544D02*
X10122291Y-8564402D01*
X10108006Y-8535830D01*
X10079434Y-8521544D01*
X10036577Y-8521544D01*
X10008006Y-8535830D01*
X9993720Y-8550116D01*
X10308006Y-8721544D02*
X10279434Y-8707259D01*
X10265148Y-8692973D01*
X10250863Y-8664402D01*
X10250863Y-8578687D01*
X10265148Y-8550116D01*
X10279434Y-8535830D01*
X10308006Y-8521544D01*
X10350863Y-8521544D01*
X10379434Y-8535830D01*
X10393720Y-8550116D01*
X10408006Y-8578687D01*
X10408006Y-8664402D01*
X10393720Y-8692973D01*
X10379434Y-8707259D01*
X10350863Y-8721544D01*
X10308006Y-8721544D01*
X10579434Y-8721544D02*
X10550863Y-8707259D01*
X10536577Y-8678687D01*
X10536577Y-8421544D01*
X10808006Y-8707259D02*
X10779434Y-8721544D01*
X10722291Y-8721544D01*
X10693720Y-8707259D01*
X10679434Y-8678687D01*
X10679434Y-8564402D01*
X10693720Y-8535830D01*
X10722291Y-8521544D01*
X10779434Y-8521544D01*
X10808006Y-8535830D01*
X10822291Y-8564402D01*
X10822291Y-8592973D01*
X10679434Y-8621544D01*
X10936577Y-8707259D02*
X10965148Y-8721544D01*
X11022291Y-8721544D01*
X11050863Y-8707259D01*
X11065148Y-8678687D01*
X11065148Y-8664402D01*
X11050863Y-8635830D01*
X11022291Y-8621544D01*
X10979434Y-8621544D01*
X10950863Y-8607259D01*
X10936577Y-8578687D01*
X10936577Y-8564402D01*
X10950863Y-8535830D01*
X10979434Y-8521544D01*
X11022291Y-8521544D01*
X11050863Y-8535830D01*
X11165148Y-8835830D02*
X11179434Y-8821544D01*
X11208006Y-8778687D01*
X11222291Y-8750116D01*
X11236577Y-8707259D01*
X11250863Y-8635830D01*
X11250863Y-8578687D01*
X11236577Y-8507259D01*
X11222291Y-8464402D01*
X11208006Y-8435830D01*
X11179434Y-8392973D01*
X11165148Y-8378687D01*
X4664076Y-9017186D02*
X4664076Y-8946474D01*
X4593364Y-8946474D01*
X4593364Y-9017186D01*
X4664076Y-9017186D01*
X5122291Y-9117544D02*
X4950863Y-9117544D01*
X5036577Y-9117544D02*
X5036577Y-8817544D01*
X5008006Y-8860402D01*
X4979434Y-8888973D01*
X4950863Y-8903259D01*
X5250863Y-9088973D02*
X5265148Y-9103259D01*
X5250863Y-9117544D01*
X5236577Y-9103259D01*
X5250863Y-9088973D01*
X5250863Y-9117544D01*
X5450863Y-8817544D02*
X5479434Y-8817544D01*
X5508006Y-8831830D01*
X5522291Y-8846116D01*
X5536577Y-8874687D01*
X5550863Y-8931830D01*
X5550863Y-9003259D01*
X5536577Y-9060402D01*
X5522291Y-9088973D01*
X5508006Y-9103259D01*
X5479434Y-9117544D01*
X5450863Y-9117544D01*
X5422291Y-9103259D01*
X5408006Y-9088973D01*
X5393720Y-9060402D01*
X5379434Y-9003259D01*
X5379434Y-8931830D01*
X5393720Y-8874687D01*
X5408006Y-8846116D01*
X5422291Y-8831830D01*
X5450863Y-8817544D01*
X5736577Y-8817544D02*
X5765148Y-8817544D01*
X5793720Y-8831830D01*
X5808006Y-8846116D01*
X5822291Y-8874687D01*
X5836577Y-8931830D01*
X5836577Y-9003259D01*
X5822291Y-9060402D01*
X5808006Y-9088973D01*
X5793720Y-9103259D01*
X5765148Y-9117544D01*
X5736577Y-9117544D01*
X5708006Y-9103259D01*
X5693720Y-9088973D01*
X5679434Y-9060402D01*
X5665148Y-9003259D01*
X5665148Y-8931830D01*
X5679434Y-8874687D01*
X5693720Y-8846116D01*
X5708006Y-8831830D01*
X5736577Y-8817544D01*
X5965148Y-9117544D02*
X5965148Y-8917544D01*
X5965148Y-8946116D02*
X5979434Y-8931830D01*
X6008006Y-8917544D01*
X6050863Y-8917544D01*
X6079434Y-8931830D01*
X6093720Y-8960402D01*
X6093720Y-9117544D01*
X6093720Y-8960402D02*
X6108006Y-8931830D01*
X6136577Y-8917544D01*
X6179434Y-8917544D01*
X6208006Y-8931830D01*
X6222291Y-8960402D01*
X6222291Y-9117544D01*
X6365148Y-9117544D02*
X6365148Y-8917544D01*
X6365148Y-8946116D02*
X6379434Y-8931830D01*
X6408006Y-8917544D01*
X6450863Y-8917544D01*
X6479434Y-8931830D01*
X6493720Y-8960402D01*
X6493720Y-9117544D01*
X6493720Y-8960402D02*
X6508006Y-8931830D01*
X6536577Y-8917544D01*
X6579434Y-8917544D01*
X6608006Y-8931830D01*
X6622291Y-8960402D01*
X6622291Y-9117544D01*
X7208006Y-8803259D02*
X6950863Y-9188973D01*
X7593720Y-8817544D02*
X7622291Y-8817544D01*
X7650863Y-8831830D01*
X7665148Y-8846116D01*
X7679434Y-8874687D01*
X7693720Y-8931830D01*
X7693720Y-9003259D01*
X7679434Y-9060402D01*
X7665148Y-9088973D01*
X7650863Y-9103259D01*
X7622291Y-9117544D01*
X7593720Y-9117544D01*
X7565148Y-9103259D01*
X7550863Y-9088973D01*
X7536577Y-9060402D01*
X7522291Y-9003259D01*
X7522291Y-8931830D01*
X7536577Y-8874687D01*
X7550863Y-8846116D01*
X7565148Y-8831830D01*
X7593720Y-8817544D01*
X7822291Y-9088973D02*
X7836577Y-9103259D01*
X7822291Y-9117544D01*
X7808006Y-9103259D01*
X7822291Y-9088973D01*
X7822291Y-9117544D01*
X8022291Y-8817544D02*
X8050863Y-8817544D01*
X8079434Y-8831830D01*
X8093720Y-8846116D01*
X8108006Y-8874687D01*
X8122291Y-8931830D01*
X8122291Y-9003259D01*
X8108006Y-9060402D01*
X8093720Y-9088973D01*
X8079434Y-9103259D01*
X8050863Y-9117544D01*
X8022291Y-9117544D01*
X7993720Y-9103259D01*
X7979434Y-9088973D01*
X7965148Y-9060402D01*
X7950863Y-9003259D01*
X7950863Y-8931830D01*
X7965148Y-8874687D01*
X7979434Y-8846116D01*
X7993720Y-8831830D01*
X8022291Y-8817544D01*
X8222291Y-8817544D02*
X8408006Y-8817544D01*
X8308006Y-8931830D01*
X8350863Y-8931830D01*
X8379434Y-8946116D01*
X8393720Y-8960402D01*
X8408006Y-8988973D01*
X8408006Y-9060402D01*
X8393720Y-9088973D01*
X8379434Y-9103259D01*
X8350863Y-9117544D01*
X8265148Y-9117544D01*
X8236577Y-9103259D01*
X8222291Y-9088973D01*
X8550863Y-9117544D02*
X8608006Y-9117544D01*
X8636577Y-9103259D01*
X8650863Y-9088973D01*
X8679434Y-9046116D01*
X8693720Y-8988973D01*
X8693720Y-8874687D01*
X8679434Y-8846116D01*
X8665148Y-8831830D01*
X8636577Y-8817544D01*
X8579434Y-8817544D01*
X8550863Y-8831830D01*
X8536577Y-8846116D01*
X8522291Y-8874687D01*
X8522291Y-8946116D01*
X8536577Y-8974687D01*
X8550863Y-8988973D01*
X8579434Y-9003259D01*
X8636577Y-9003259D01*
X8665148Y-8988973D01*
X8679434Y-8974687D01*
X8693720Y-8946116D01*
X8808006Y-8817544D02*
X8808006Y-8874687D01*
X8922291Y-8817544D02*
X8922291Y-8874687D01*
X9365148Y-9231830D02*
X9350863Y-9217544D01*
X9322291Y-9174687D01*
X9308006Y-9146116D01*
X9293720Y-9103259D01*
X9279434Y-9031830D01*
X9279434Y-8974687D01*
X9293720Y-8903259D01*
X9308006Y-8860402D01*
X9322291Y-8831830D01*
X9350863Y-8788973D01*
X9365148Y-8774687D01*
X9522291Y-8946116D02*
X9493720Y-8931830D01*
X9479434Y-8917544D01*
X9465148Y-8888973D01*
X9465148Y-8874687D01*
X9479434Y-8846116D01*
X9493720Y-8831830D01*
X9522291Y-8817544D01*
X9579434Y-8817544D01*
X9608006Y-8831830D01*
X9622291Y-8846116D01*
X9636577Y-8874687D01*
X9636577Y-8888973D01*
X9622291Y-8917544D01*
X9608006Y-8931830D01*
X9579434Y-8946116D01*
X9522291Y-8946116D01*
X9493720Y-8960402D01*
X9479434Y-8974687D01*
X9465148Y-9003259D01*
X9465148Y-9060402D01*
X9479434Y-9088973D01*
X9493720Y-9103259D01*
X9522291Y-9117544D01*
X9579434Y-9117544D01*
X9608006Y-9103259D01*
X9622291Y-9088973D01*
X9636577Y-9060402D01*
X9636577Y-9003259D01*
X9622291Y-8974687D01*
X9608006Y-8960402D01*
X9579434Y-8946116D01*
X9993720Y-9117544D02*
X9993720Y-8817544D01*
X10122291Y-9117544D02*
X10122291Y-8960402D01*
X10108006Y-8931830D01*
X10079434Y-8917544D01*
X10036577Y-8917544D01*
X10008006Y-8931830D01*
X9993720Y-8946116D01*
X10308006Y-9117544D02*
X10279434Y-9103259D01*
X10265148Y-9088973D01*
X10250863Y-9060402D01*
X10250863Y-8974687D01*
X10265148Y-8946116D01*
X10279434Y-8931830D01*
X10308006Y-8917544D01*
X10350863Y-8917544D01*
X10379434Y-8931830D01*
X10393720Y-8946116D01*
X10408006Y-8974687D01*
X10408006Y-9060402D01*
X10393720Y-9088973D01*
X10379434Y-9103259D01*
X10350863Y-9117544D01*
X10308006Y-9117544D01*
X10579434Y-9117544D02*
X10550863Y-9103259D01*
X10536577Y-9074687D01*
X10536577Y-8817544D01*
X10808006Y-9103259D02*
X10779434Y-9117544D01*
X10722291Y-9117544D01*
X10693720Y-9103259D01*
X10679434Y-9074687D01*
X10679434Y-8960402D01*
X10693720Y-8931830D01*
X10722291Y-8917544D01*
X10779434Y-8917544D01*
X10808006Y-8931830D01*
X10822291Y-8960402D01*
X10822291Y-8988973D01*
X10679434Y-9017544D01*
X10936577Y-9103259D02*
X10965148Y-9117544D01*
X11022291Y-9117544D01*
X11050863Y-9103259D01*
X11065148Y-9074687D01*
X11065148Y-9060402D01*
X11050863Y-9031830D01*
X11022291Y-9017544D01*
X10979434Y-9017544D01*
X10950863Y-9003259D01*
X10936577Y-8974687D01*
X10936577Y-8960402D01*
X10950863Y-8931830D01*
X10979434Y-8917544D01*
X11022291Y-8917544D01*
X11050863Y-8931830D01*
X11165148Y-9231830D02*
X11179434Y-9217544D01*
X11208006Y-9174687D01*
X11222291Y-9146116D01*
X11236577Y-9103259D01*
X11250863Y-9031830D01*
X11250863Y-8974687D01*
X11236577Y-8903259D01*
X11222291Y-8860402D01*
X11208006Y-8831830D01*
X11179434Y-8788973D01*
X11165148Y-8774687D01*
X4623720Y-9432830D02*
X4678720Y-9377830D01*
X4623720Y-9322830D01*
X4568720Y-9377830D01*
X4623720Y-9432830D01*
X5122291Y-9513544D02*
X4950863Y-9513544D01*
X5036577Y-9513544D02*
X5036577Y-9213544D01*
X5008006Y-9256402D01*
X4979434Y-9284973D01*
X4950863Y-9299259D01*
X5250863Y-9484973D02*
X5265148Y-9499259D01*
X5250863Y-9513544D01*
X5236577Y-9499259D01*
X5250863Y-9484973D01*
X5250863Y-9513544D01*
X5550863Y-9513544D02*
X5379434Y-9513544D01*
X5465148Y-9513544D02*
X5465148Y-9213544D01*
X5436577Y-9256402D01*
X5408006Y-9284973D01*
X5379434Y-9299259D01*
X5736577Y-9213544D02*
X5765148Y-9213544D01*
X5793720Y-9227830D01*
X5808006Y-9242116D01*
X5822291Y-9270687D01*
X5836577Y-9327830D01*
X5836577Y-9399259D01*
X5822291Y-9456402D01*
X5808006Y-9484973D01*
X5793720Y-9499259D01*
X5765148Y-9513544D01*
X5736577Y-9513544D01*
X5708006Y-9499259D01*
X5693720Y-9484973D01*
X5679434Y-9456402D01*
X5665148Y-9399259D01*
X5665148Y-9327830D01*
X5679434Y-9270687D01*
X5693720Y-9242116D01*
X5708006Y-9227830D01*
X5736577Y-9213544D01*
X5965148Y-9513544D02*
X5965148Y-9313544D01*
X5965148Y-9342116D02*
X5979434Y-9327830D01*
X6008006Y-9313544D01*
X6050863Y-9313544D01*
X6079434Y-9327830D01*
X6093720Y-9356402D01*
X6093720Y-9513544D01*
X6093720Y-9356402D02*
X6108006Y-9327830D01*
X6136577Y-9313544D01*
X6179434Y-9313544D01*
X6208006Y-9327830D01*
X6222291Y-9356402D01*
X6222291Y-9513544D01*
X6365148Y-9513544D02*
X6365148Y-9313544D01*
X6365148Y-9342116D02*
X6379434Y-9327830D01*
X6408006Y-9313544D01*
X6450863Y-9313544D01*
X6479434Y-9327830D01*
X6493720Y-9356402D01*
X6493720Y-9513544D01*
X6493720Y-9356402D02*
X6508006Y-9327830D01*
X6536577Y-9313544D01*
X6579434Y-9313544D01*
X6608006Y-9327830D01*
X6622291Y-9356402D01*
X6622291Y-9513544D01*
X7208006Y-9199259D02*
X6950863Y-9584973D01*
X7593720Y-9213544D02*
X7622291Y-9213544D01*
X7650863Y-9227830D01*
X7665148Y-9242116D01*
X7679434Y-9270687D01*
X7693720Y-9327830D01*
X7693720Y-9399259D01*
X7679434Y-9456402D01*
X7665148Y-9484973D01*
X7650863Y-9499259D01*
X7622291Y-9513544D01*
X7593720Y-9513544D01*
X7565148Y-9499259D01*
X7550863Y-9484973D01*
X7536577Y-9456402D01*
X7522291Y-9399259D01*
X7522291Y-9327830D01*
X7536577Y-9270687D01*
X7550863Y-9242116D01*
X7565148Y-9227830D01*
X7593720Y-9213544D01*
X7822291Y-9484973D02*
X7836577Y-9499259D01*
X7822291Y-9513544D01*
X7808006Y-9499259D01*
X7822291Y-9484973D01*
X7822291Y-9513544D01*
X8022291Y-9213544D02*
X8050863Y-9213544D01*
X8079434Y-9227830D01*
X8093720Y-9242116D01*
X8108006Y-9270687D01*
X8122291Y-9327830D01*
X8122291Y-9399259D01*
X8108006Y-9456402D01*
X8093720Y-9484973D01*
X8079434Y-9499259D01*
X8050863Y-9513544D01*
X8022291Y-9513544D01*
X7993720Y-9499259D01*
X7979434Y-9484973D01*
X7965148Y-9456402D01*
X7950863Y-9399259D01*
X7950863Y-9327830D01*
X7965148Y-9270687D01*
X7979434Y-9242116D01*
X7993720Y-9227830D01*
X8022291Y-9213544D01*
X8379434Y-9313544D02*
X8379434Y-9513544D01*
X8308006Y-9199259D02*
X8236577Y-9413544D01*
X8422291Y-9413544D01*
X8508006Y-9213544D02*
X8693720Y-9213544D01*
X8593720Y-9327830D01*
X8636577Y-9327830D01*
X8665148Y-9342116D01*
X8679434Y-9356402D01*
X8693720Y-9384973D01*
X8693720Y-9456402D01*
X8679434Y-9484973D01*
X8665148Y-9499259D01*
X8636577Y-9513544D01*
X8550863Y-9513544D01*
X8522291Y-9499259D01*
X8508006Y-9484973D01*
X8808006Y-9213544D02*
X8808006Y-9270687D01*
X8922291Y-9213544D02*
X8922291Y-9270687D01*
X9365148Y-9627830D02*
X9350863Y-9613544D01*
X9322291Y-9570687D01*
X9308006Y-9542116D01*
X9293720Y-9499259D01*
X9279434Y-9427830D01*
X9279434Y-9370687D01*
X9293720Y-9299259D01*
X9308006Y-9256402D01*
X9322291Y-9227830D01*
X9350863Y-9184973D01*
X9365148Y-9170687D01*
X9465148Y-9242116D02*
X9479434Y-9227830D01*
X9508006Y-9213544D01*
X9579434Y-9213544D01*
X9608006Y-9227830D01*
X9622291Y-9242116D01*
X9636577Y-9270687D01*
X9636577Y-9299259D01*
X9622291Y-9342116D01*
X9450863Y-9513544D01*
X9636577Y-9513544D01*
X9993720Y-9513544D02*
X9993720Y-9213544D01*
X10122291Y-9513544D02*
X10122291Y-9356402D01*
X10108006Y-9327830D01*
X10079434Y-9313544D01*
X10036577Y-9313544D01*
X10008006Y-9327830D01*
X9993720Y-9342116D01*
X10308006Y-9513544D02*
X10279434Y-9499259D01*
X10265148Y-9484973D01*
X10250863Y-9456402D01*
X10250863Y-9370687D01*
X10265148Y-9342116D01*
X10279434Y-9327830D01*
X10308006Y-9313544D01*
X10350863Y-9313544D01*
X10379434Y-9327830D01*
X10393720Y-9342116D01*
X10408006Y-9370687D01*
X10408006Y-9456402D01*
X10393720Y-9484973D01*
X10379434Y-9499259D01*
X10350863Y-9513544D01*
X10308006Y-9513544D01*
X10579434Y-9513544D02*
X10550863Y-9499259D01*
X10536577Y-9470687D01*
X10536577Y-9213544D01*
X10808006Y-9499259D02*
X10779434Y-9513544D01*
X10722291Y-9513544D01*
X10693720Y-9499259D01*
X10679434Y-9470687D01*
X10679434Y-9356402D01*
X10693720Y-9327830D01*
X10722291Y-9313544D01*
X10779434Y-9313544D01*
X10808006Y-9327830D01*
X10822291Y-9356402D01*
X10822291Y-9384973D01*
X10679434Y-9413544D01*
X10936577Y-9499259D02*
X10965148Y-9513544D01*
X11022291Y-9513544D01*
X11050863Y-9499259D01*
X11065148Y-9470687D01*
X11065148Y-9456402D01*
X11050863Y-9427830D01*
X11022291Y-9413544D01*
X10979434Y-9413544D01*
X10950863Y-9399259D01*
X10936577Y-9370687D01*
X10936577Y-9356402D01*
X10950863Y-9327830D01*
X10979434Y-9313544D01*
X11022291Y-9313544D01*
X11050863Y-9327830D01*
X11165148Y-9627830D02*
X11179434Y-9613544D01*
X11208006Y-9570687D01*
X11222291Y-9542116D01*
X11236577Y-9499259D01*
X11250863Y-9427830D01*
X11250863Y-9370687D01*
X11236577Y-9299259D01*
X11222291Y-9256402D01*
X11208006Y-9227830D01*
X11179434Y-9184973D01*
X11165148Y-9170687D01*
M02*
