%FSLAX45Y45*%
G04 Gerber Fmt 4.5, Leading zero omitted, Abs format (unit mm)*
G04 Created by KiCad (PCBNEW 5.1.9) date 2021-08-01 18:05:11*
%MOMM*%
%LPD*%
G01*
G04 APERTURE LIST*
%TA.AperFunction,Profile*%
%ADD10C,0.050000*%
%TD*%
%ADD11C,0.200000*%
%ADD12C,0.300000*%
G04 APERTURE END LIST*
D10*
X11653520Y-6831330D02*
X11653520Y-2082800D01*
X4681220Y-2082800D02*
X4681220Y-6831330D01*
X11653520Y-2082800D02*
X4681220Y-2082800D01*
X4681220Y-6831330D02*
X11653520Y-6831330D01*
D11*
D12*
X4965148Y-7299544D02*
X4965148Y-6999544D01*
X5036577Y-6999544D01*
X5079434Y-7013830D01*
X5108006Y-7042401D01*
X5122291Y-7070973D01*
X5136577Y-7128116D01*
X5136577Y-7170973D01*
X5122291Y-7228116D01*
X5108006Y-7256687D01*
X5079434Y-7285259D01*
X5036577Y-7299544D01*
X4965148Y-7299544D01*
X5265148Y-7299544D02*
X5265148Y-7099544D01*
X5265148Y-7156687D02*
X5279434Y-7128116D01*
X5293720Y-7113830D01*
X5322291Y-7099544D01*
X5350863Y-7099544D01*
X5450863Y-7299544D02*
X5450863Y-7099544D01*
X5450863Y-6999544D02*
X5436577Y-7013830D01*
X5450863Y-7028116D01*
X5465148Y-7013830D01*
X5450863Y-6999544D01*
X5450863Y-7028116D01*
X5636577Y-7299544D02*
X5608006Y-7285259D01*
X5593720Y-7256687D01*
X5593720Y-6999544D01*
X5793720Y-7299544D02*
X5765148Y-7285259D01*
X5750863Y-7256687D01*
X5750863Y-6999544D01*
X6136577Y-7299544D02*
X6136577Y-6999544D01*
X6236577Y-7213830D01*
X6336577Y-6999544D01*
X6336577Y-7299544D01*
X6608006Y-7299544D02*
X6608006Y-7142401D01*
X6593720Y-7113830D01*
X6565148Y-7099544D01*
X6508006Y-7099544D01*
X6479434Y-7113830D01*
X6608006Y-7285259D02*
X6579434Y-7299544D01*
X6508006Y-7299544D01*
X6479434Y-7285259D01*
X6465148Y-7256687D01*
X6465148Y-7228116D01*
X6479434Y-7199544D01*
X6508006Y-7185259D01*
X6579434Y-7185259D01*
X6608006Y-7170973D01*
X6750863Y-7099544D02*
X6750863Y-7399544D01*
X6750863Y-7113830D02*
X6779434Y-7099544D01*
X6836577Y-7099544D01*
X6865148Y-7113830D01*
X6879434Y-7128116D01*
X6893720Y-7156687D01*
X6893720Y-7242401D01*
X6879434Y-7270973D01*
X6865148Y-7285259D01*
X6836577Y-7299544D01*
X6779434Y-7299544D01*
X6750863Y-7285259D01*
X7022291Y-7270973D02*
X7036577Y-7285259D01*
X7022291Y-7299544D01*
X7008006Y-7285259D01*
X7022291Y-7270973D01*
X7022291Y-7299544D01*
X7022291Y-7113830D02*
X7036577Y-7128116D01*
X7022291Y-7142401D01*
X7008006Y-7128116D01*
X7022291Y-7113830D01*
X7022291Y-7142401D01*
M02*
