M48
; DRILL file {KiCad 5.1.9} date Sun Aug  1 18:05:19 2021
; FORMAT={3:3/ absolute / metric / suppress leading zeros}
; #@! TF.CreationDate,2021-08-01T18:05:19+02:00
; #@! TF.GenerationSoftware,Kicad,Pcbnew,5.1.9
; #@! TF.FileFunction,Plated,1,2,PTH
FMAT,2
METRIC,TZ
T1C0.750
T2C0.800
T3C0.900
T4C1.000
T5C1.100
%
G90
G05
T1
X69558Y-51930
X69558Y-54470
X69558Y-57010
X72314Y-51930
X72314Y-54470
X72314Y-57010
X97244Y-49428
X97244Y-51968
X97244Y-54508
T2
X54991Y-55474
X56350Y-40424
X57531Y-55474
X60071Y-55474
X60088Y-52095
X62268Y-44768
X63970Y-40424
X65087Y-52095
X67158Y-40424
X67240Y-35420
X67297Y-52146
X67297Y-59766
X69698Y-40424
X69888Y-44768
X70209Y-49898
X72238Y-40424
X74740Y-35420
X75146Y-54381
X75146Y-61881
X75209Y-49898
X77483Y-49911
X78009Y-46927
X78067Y-44285
X82483Y-49911
X82537Y-35395
X84887Y-54521
X84887Y-62141
X85509Y-46927
X85687Y-38100
X85687Y-40729
X85687Y-44285
X87109Y-54521
X89433Y-44387
X89433Y-46927
X89433Y-49467
X90157Y-35395
X93187Y-40729
X93205Y-35395
X93282Y-44374
X93282Y-51874
X93307Y-38100
X94729Y-54521
X95809Y-39675
X95809Y-44675
X98019Y-39332
X98019Y-46952
X99847Y-51981
X99936Y-49428
X99936Y-54521
X100305Y-41275
X100317Y-44031
X100387Y-46952
X100825Y-35395
X107436Y-49428
X107467Y-51981
X107556Y-54521
X107805Y-41275
X107887Y-46952
X107937Y-44031
T3
X59677Y-47587
X69837Y-47587
T4
X56248Y-48565
X56248Y-51105
X90538Y-29959
X90538Y-32499
X94196Y-32118
X102527Y-38456
X105067Y-38456
X109196Y-32118
T5
X79680Y-33947
X79680Y-54267
T0
M30
