%TF.GenerationSoftware,KiCad,Pcbnew,5.1.9*%
%TF.CreationDate,2021-08-01T18:05:45+02:00*%
%TF.ProjectId,DonwConvertor,446f6e77-436f-46e7-9665-72746f722e6b,rev?*%
%TF.SameCoordinates,Original*%
%TF.FileFunction,Soldermask,Bot*%
%TF.FilePolarity,Negative*%
%FSLAX45Y45*%
G04 Gerber Fmt 4.5, Leading zero omitted, Abs format (unit mm)*
G04 Created by KiCad (PCBNEW 5.1.9) date 2021-08-01 18:05:45*
%MOMM*%
%LPD*%
G01*
G04 APERTURE LIST*
%ADD10O,1.700000X1.700000*%
%ADD11R,1.700000X1.700000*%
%ADD12C,1.600000*%
%ADD13O,1.600000X1.600000*%
%ADD14C,1.440000*%
%ADD15R,1.800000X1.800000*%
%ADD16O,1.800000X1.800000*%
%ADD17C,2.200000*%
%ADD18O,2.200000X2.200000*%
%ADD19R,2.000000X2.000000*%
%ADD20O,2.000000X2.000000*%
%ADD21O,1.300000X1.050000*%
%ADD22R,1.300000X1.050000*%
%ADD23R,1.600000X1.600000*%
G04 APERTURE END LIST*
D10*
%TO.C,J2*%
X9053830Y-3249930D03*
D11*
X9053830Y-2995930D03*
%TD*%
D12*
%TO.C,R9*%
X9320530Y-3539490D03*
D13*
X10082530Y-3539490D03*
%TD*%
%TO.C,R5*%
X8253730Y-3539490D03*
D12*
X9015730Y-3539490D03*
%TD*%
%TO.C,C11*%
X9328150Y-5187380D03*
D13*
X9328150Y-4437380D03*
%TD*%
D12*
%TO.C,R7*%
X8568690Y-3810000D03*
D13*
X9330690Y-3810000D03*
%TD*%
%TO.C,C8*%
X9318690Y-4072890D03*
D12*
X8568690Y-4072890D03*
%TD*%
D14*
%TO.C,RV2*%
X8943340Y-4438650D03*
X8943340Y-4692650D03*
X8943340Y-4946650D03*
%TD*%
D12*
%TO.C,C9*%
X8550910Y-4692650D03*
D13*
X7800910Y-4692650D03*
%TD*%
%TO.C,R11*%
X10755630Y-5452110D03*
D12*
X9993630Y-5452110D03*
%TD*%
D15*
%TO.C,D1*%
X6983730Y-4758690D03*
D16*
X5967730Y-4758690D03*
%TD*%
D17*
%TO.C,L1*%
X7967980Y-3394710D03*
D18*
X7967980Y-5426710D03*
%TD*%
D11*
%TO.C,J1*%
X5624830Y-4856480D03*
D10*
X5624830Y-5110480D03*
%TD*%
D19*
%TO.C,C15*%
X9419590Y-3211830D03*
D20*
X10919590Y-3211830D03*
%TD*%
D12*
%TO.C,R2*%
X6988810Y-4476750D03*
D13*
X6226810Y-4476750D03*
%TD*%
D14*
%TO.C,RV1*%
X6715760Y-4042410D03*
X6969760Y-4042410D03*
X7223760Y-4042410D03*
%TD*%
D12*
%TO.C,C14*%
X10030460Y-4127500D03*
D13*
X10780460Y-4127500D03*
%TD*%
D12*
%TO.C,C4*%
X7514590Y-5438140D03*
D13*
X7514590Y-6188140D03*
%TD*%
%TO.C,C1*%
X6723950Y-3542030D03*
D12*
X7473950Y-3542030D03*
%TD*%
D13*
%TO.C,C12*%
X10743630Y-4942840D03*
D12*
X9993630Y-4942840D03*
%TD*%
D21*
%TO.C,Q3*%
X9724390Y-5196840D03*
X9724390Y-5450840D03*
D22*
X9724390Y-4942840D03*
%TD*%
D13*
%TO.C,R1*%
X5634990Y-4042410D03*
D12*
X6396990Y-4042410D03*
%TD*%
D13*
%TO.C,R4*%
X6729730Y-5976620D03*
D12*
X6729730Y-5214620D03*
%TD*%
%TO.C,R10*%
X9472930Y-5452110D03*
D13*
X8710930Y-5452110D03*
%TD*%
%TO.C,R13*%
X10746740Y-5198110D03*
D12*
X9984740Y-5198110D03*
%TD*%
D11*
%TO.C,J3*%
X10506710Y-3845560D03*
D10*
X10252710Y-3845560D03*
%TD*%
D22*
%TO.C,Q1*%
X6955790Y-5193030D03*
D21*
X6955790Y-5701030D03*
X6955790Y-5447030D03*
%TD*%
%TO.C,Q2*%
X7231380Y-5447030D03*
X7231380Y-5701030D03*
D22*
X7231380Y-5193030D03*
%TD*%
D23*
%TO.C,C2*%
X7520940Y-4989830D03*
D12*
X7020940Y-4989830D03*
%TD*%
%TO.C,C3*%
X6508750Y-5209540D03*
X6008750Y-5209540D03*
%TD*%
%TO.C,R6*%
X7806690Y-4428490D03*
D13*
X8568690Y-4428490D03*
%TD*%
D14*
%TO.C,RV3*%
X6007100Y-5547360D03*
X5753100Y-5547360D03*
X5499100Y-5547360D03*
%TD*%
D12*
%TO.C,C7*%
X8248270Y-4991100D03*
X7748270Y-4991100D03*
%TD*%
%TO.C,R8*%
X8488680Y-5452110D03*
D13*
X8488680Y-6214110D03*
%TD*%
D12*
%TO.C,C10*%
X9580880Y-3967480D03*
X9580880Y-4467480D03*
%TD*%
%TO.C,C13*%
X10788650Y-4695190D03*
D13*
X10038650Y-4695190D03*
%TD*%
D12*
%TO.C,R12*%
X9801860Y-3933190D03*
D13*
X9801860Y-4695190D03*
%TD*%
%TO.C,R14*%
X10031730Y-4403090D03*
D12*
X10793730Y-4403090D03*
%TD*%
M02*
